<svg xmlns="http://www.w3.org/2000/svg" viewBox="0 0 176 150" style="height: 100%;width: 100%;position: absolute;left: 0;top: 0;"> <g transform="matrix(1 0 0 1 0 6)"> <g> <g transform="matrix(1 0 0 1 38 0)"> <defs> <linearGradient x1="0" y1="0" x2="0" y2="1" id="gradient11" gradientTransform="rotate(-150 .5 .5)"> <stop offset="0" stop-color="#57dae6" stop-opacity="1"></stop> <stop offset="1" stop-color="#576de6" stop-opacity="1"></stop> </linearGradient> </defs> <path fill="url(#gradient11)" d="M 50 10 L 69.4 43.55 73.8 41.2 50 0 0 86.55 100 86.55 78.8 49.9 74.4 52.2 91.35 81.55 8.7 81.55 50 10 Z"></path> </g> </g> <g> <g transform="matrix(1 0 0 1 38 0)"> <path fill="#ff9393" fill-opacity="1" d="M 0 86.7 L 47.65 86.7 23.85 45.4 0 86.7 M 38.95 81.65 L 8.7 81.65 23.85 55.4 38.95 81.65 Z"></path> </g> </g> </g> <g transform="matrix(2 0 0 2 0 120)"> <path fill="#248fdd" fill-opacity="1" d="M6.333333333333333,-8.055555555555552C7.222222222222221,-8.388888888888886,8.055555555555555,-8.611111111111107,8.833333333333332,-8.611111111111107C9.5,-8.611111111111107,10.222222222222221,-8.388888888888886,10.944444444444443,-7.888888888888886C11.333333333333332,-7.611111111111107,11.722222222222221,-7.111111111111107,12.222222222222221,-6.333333333333329C12.555555555555555,-5.777777777777773,12.944444444444445,-4.777777777777773,13.444444444444445,-3.3888888888888857C13.444444444444445,-3.3888888888888857,15.888888888888888,3.5000000000000036,15.888888888888888,3.5000000000000036C16.444444444444443,5.055555555555559,17.055555555555557,6.333333333333337,17.61111111111111,7.222222222222225C18.166666666666664,8.111111111111114,18.666666666666664,8.833333333333336,19.166666666666664,9.27777777777778C19.666666666666664,9.722222222222225,20.166666666666664,10.055555555555559,20.666666666666664,10.222222222222225C21.166666666666664,10.388888888888893,21.61111111111111,10.500000000000004,21.944444444444443,10.500000000000004C22.277777777777775,10.500000000000004,22.61111111111111,10.500000000000004,22.88888888888889,10.444444444444446C22.88888888888889,10.444444444444446,22.88888888888889,10.611111111111114,22.88888888888889,10.611111111111114C22.22222222222222,10.833333333333336,21.61111111111111,10.944444444444446,21,10.944444444444446C20.38888888888889,10.944444444444446,19.77777777777778,10.833333333333336,19.166666666666664,10.500000000000004C18.555555555555557,10.16666666666667,18,9.722222222222225,17.444444444444443,9.16666666666667C16.27777777777778,8.000000000000004,15.333333333333332,6.277777777777781,14.555555555555555,3.8888888888888924C14.555555555555555,3.8888888888888924,13.777777777777777,1.6111111111111143,13.777777777777777,1.6111111111111143C13.777777777777777,1.6111111111111143,8.277777777777779,1.6111111111111143,8.277777777777779,1.6111111111111143C8.277777777777779,1.6111111111111143,6.888888888888889,5.16666666666667,6.888888888888889,5.16666666666667C6.833333333333333,5.333333333333337,6.777777777777778,5.444444444444448,6.777777777777778,5.611111111111114C6.777777777777778,5.777777777777781,6.833333333333333,6.0000000000000036,7,6.16666666666667C7.166666666666666,6.333333333333337,7.388888888888889,6.388888888888892,7.666666666666666,6.388888888888892C7.666666666666666,6.388888888888892,7.833333333333333,6.388888888888892,7.833333333333333,6.388888888888892C7.833333333333333,6.388888888888892,7.833333333333333,6.611111111111114,7.833333333333333,6.611111111111114C7.833333333333333,6.611111111111114,3.7777777777777777,6.611111111111114,3.7777777777777777,6.611111111111114C3.7777777777777777,6.611111111111114,3.7777777777777777,6.388888888888892,3.7777777777777777,6.388888888888892C3.7777777777777777,6.388888888888892,4,6.388888888888892,4,6.388888888888892C4.333333333333333,6.388888888888892,4.611111111111111,6.277777777777781,4.944444444444445,6.111111111111114C5.277777777777778,5.944444444444447,5.444444444444445,5.66666666666667,5.666666666666666,5.277777777777781C5.666666666666666,5.277777777777781,10.666666666666666,-6.611111111111107,10.666666666666666,-6.611111111111107C9.944444444444443,-7.611111111111107,9,-8.166666666666663,7.944444444444445,-8.166666666666663C7.444444444444445,-8.166666666666663,7,-8.111111111111107,6.444444444444445,-7.888888888888886C6.444444444444445,-7.888888888888886,6.333333333333333,-8.055555555555552,6.333333333333333,-8.055555555555552M8.5,1.0000000000000036C8.5,1.0000000000000036,13.555555555555555,1.0000000000000036,13.555555555555555,1.0000000000000036C13.555555555555555,1.0000000000000036,12,-3.6666666666666625,12,-3.6666666666666625C11.666666666666666,-4.555555555555552,11.444444444444443,-5.277777777777773,11.166666666666666,-5.777777777777773C11.166666666666666,-5.777777777777773,8.5,1.0000000000000036,8.5,1.0000000000000036M23.555555555555554,-6.777777777777773C23.555555555555554,-6.777777777777773,22.27777777777778,-6.777777777777773,22.27777777777778,-6.777777777777773C22.27777777777778,-6.777777777777773,22.27777777777778,5.16666666666667,22.27777777777778,5.16666666666667C22.27777777777778,5.5000000000000036,22.388888888888886,5.833333333333337,22.61111111111111,6.055555555555559C22.833333333333332,6.277777777777781,23.22222222222222,6.388888888888892,23.555555555555554,6.388888888888892C23.555555555555554,6.388888888888892,23.77777777777778,6.388888888888892,23.77777777777778,6.388888888888892C23.77777777777778,6.388888888888892,23.77777777777778,6.611111111111114,23.77777777777778,6.611111111111114C23.77777777777778,6.611111111111114,19.444444444444443,6.611111111111114,19.444444444444443,6.611111111111114C19.444444444444443,6.611111111111114,19.444444444444443,6.388888888888892,19.444444444444443,6.388888888888892C19.444444444444443,6.388888888888892,19.666666666666664,6.388888888888892,19.666666666666664,6.388888888888892C20,6.388888888888892,20.333333333333332,6.277777777777781,20.555555555555554,6.055555555555559C20.77777777777778,5.833333333333337,20.944444444444443,5.5000000000000036,20.944444444444443,5.16666666666667C20.944444444444443,5.16666666666667,20.944444444444443,-5.944444444444441,20.944444444444443,-5.944444444444441C20.944444444444443,-6.277777777777773,20.77777777777778,-6.611111111111107,20.555555555555554,-6.833333333333329C20.333333333333332,-7.055555555555552,20,-7.1666666666666625,19.666666666666664,-7.1666666666666625C19.666666666666664,-7.1666666666666625,19.444444444444443,-7.1666666666666625,19.444444444444443,-7.1666666666666625C19.444444444444443,-7.1666666666666625,19.444444444444443,-7.388888888888886,19.444444444444443,-7.388888888888886C19.444444444444443,-7.388888888888886,24.833333333333332,-7.388888888888886,24.833333333333332,-7.388888888888886C26.055555555555554,-7.388888888888886,27,-7.055555555555552,27.666666666666664,-6.388888888888886C28.333333333333332,-5.722222222222218,28.72222222222222,-4.83333333333333,28.72222222222222,-3.7777777777777732C28.72222222222222,-2.722222222222218,28.388888888888886,-1.777777777777775,27.72222222222222,-0.9999999999999964C27.055555555555554,-0.22222222222221877,26.27777777777778,0.16666666666667052,25.333333333333332,0.16666666666667052C25.555555555555554,0.27777777777778123,25.77777777777778,0.4444444444444482,26.055555555555554,0.7222222222222259C26.333333333333332,1.0000000000000036,26.555555555555554,1.3333333333333366,26.77777777777778,1.6111111111111143C27.944444444444443,3.2777777777777812,28.666666666666664,4.222222222222225,29,4.611111111111114C29.333333333333332,5.0000000000000036,29.555555555555554,5.222222222222225,29.72222222222222,5.388888888888892C29.888888888888886,5.555555555555559,30.055555555555554,5.722222222222225,30.22222222222222,5.833333333333337C30.388888888888886,5.944444444444447,30.555555555555554,6.055555555555559,30.72222222222222,6.111111111111114C31.111111111111107,6.277777777777781,31.555555555555554,6.388888888888892,32,6.388888888888892C32,6.388888888888892,32,6.611111111111114,32,6.611111111111114C32,6.611111111111114,30.888888888888886,6.611111111111114,30.888888888888886,6.611111111111114C30.333333333333332,6.611111111111114,29.77777777777778,6.5000000000000036,29.27777777777778,6.277777777777781C28.77777777777778,6.055555555555559,28.388888888888886,5.888888888888892,28.166666666666664,5.66666666666667C27.944444444444443,5.444444444444448,27.72222222222222,5.222222222222225,27.555555555555554,5.0000000000000036C27.555555555555554,5.0000000000000036,26.055555555555554,2.9444444444444478,26.055555555555554,2.9444444444444478C26.055555555555554,2.9444444444444478,24.72222222222222,1.1111111111111143,24.61111111111111,0.9444444444444482C24.5,0.7777777777777812,24.388888888888886,0.6111111111111143,24.22222222222222,0.4444444444444482C23.77777777777778,3.552713678800501e-15,23.388888888888886,-0.22222222222221877,22.944444444444443,-0.22222222222221877C22.944444444444443,-0.22222222222221877,22.944444444444443,-0.4444444444444411,22.944444444444443,-0.4444444444444411C23.055555555555554,-0.4444444444444411,23.166666666666664,-0.38888888888888573,23.333333333333332,-0.38888888888888573C23.5,-0.38888888888888573,23.72222222222222,-0.4444444444444411,24,-0.4444444444444411C25.666666666666664,-0.49999999999999645,26.666666666666664,-1.1666666666666634,27.11111111111111,-2.4999999999999964C27.166666666666664,-2.7777777777777732,27.22222222222222,-3.055555555555552,27.22222222222222,-3.2777777777777732C27.22222222222222,-3.2777777777777732,27.22222222222222,-3.722222222222218,27.22222222222222,-3.722222222222218C27.22222222222222,-4.611111111111107,26.944444444444443,-5.33333333333333,26.5,-5.888888888888886C26.055555555555554,-6.444444444444441,25.444444444444443,-6.6666666666666625,24.72222222222222,-6.722222222222218C24.388888888888886,-6.722222222222218,24.055555555555554,-6.777777777777773,23.555555555555554,-6.777777777777773C23.555555555555554,-6.777777777777773,23.555555555555554,-6.777777777777773,23.555555555555554,-6.777777777777773M49.72222222222222,6.388888888888892C49.72222222222222,6.388888888888892,50.05555555555556,6.388888888888892,50.05555555555556,6.388888888888892C50.05555555555556,6.388888888888892,50.05555555555556,6.611111111111114,50.05555555555556,6.611111111111114C50.05555555555556,6.611111111111114,45.72222222222222,6.611111111111114,45.72222222222222,6.611111111111114C45.72222222222222,6.611111111111114,45.72222222222222,6.444444444444447,45.72222222222222,6.444444444444447C45.72222222222222,6.444444444444447,46,6.444444444444447,46,6.444444444444447C46.22222222222222,6.444444444444447,46.388888888888886,6.333333333333337,46.55555555555556,6.16666666666667C46.72222222222222,6.0000000000000036,46.77777777777778,5.777777777777781,46.77777777777778,5.555555555555559C46.77777777777778,5.555555555555559,45.888888888888886,-4.4999999999999964,45.888888888888886,-4.4999999999999964C45.888888888888886,-4.4999999999999964,41.666666666666664,4.833333333333337,41.666666666666664,4.833333333333337C41.27777777777778,5.66666666666667,41.05555555555556,6.333333333333337,41,6.888888888888892C41,6.888888888888892,40.77777777777778,6.888888888888892,40.77777777777778,6.888888888888892C40.77777777777778,6.888888888888892,35.666666666666664,-4.222222222222218,35.666666666666664,-4.222222222222218C35.666666666666664,-4.222222222222218,34.83333333333333,5.555555555555559,34.83333333333333,5.555555555555559C34.83333333333333,5.777777777777781,34.83333333333333,6.0000000000000036,35,6.16666666666667C35.166666666666664,6.333333333333337,35.388888888888886,6.444444444444447,35.61111111111111,6.444444444444447C35.61111111111111,6.444444444444447,35.888888888888886,6.444444444444447,35.888888888888886,6.444444444444447C35.888888888888886,6.444444444444447,35.888888888888886,6.611111111111114,35.888888888888886,6.611111111111114C35.888888888888886,6.611111111111114,32,6.611111111111114,32,6.611111111111114C32,6.611111111111114,32,6.388888888888892,32,6.388888888888892C32,6.388888888888892,32.333333333333336,6.388888888888892,32.333333333333336,6.388888888888892C32.72222222222222,6.388888888888892,33.05555555555556,6.277777777777781,33.333333333333336,6.055555555555559C33.61111111111111,5.833333333333337,33.72222222222222,5.555555555555559,33.77777777777778,5.16666666666667C33.77777777777778,5.16666666666667,35.27777777777778,-7.6666666666666625,35.27777777777778,-7.6666666666666625C35.27777777777778,-7.6666666666666625,35.5,-7.6666666666666625,35.5,-7.6666666666666625C35.5,-7.6666666666666625,41.05555555555556,4.388888888888892,41.05555555555556,4.388888888888892C41.05555555555556,4.388888888888892,46.55555555555556,-7.6666666666666625,46.55555555555556,-7.6666666666666625C46.55555555555556,-7.6666666666666625,46.72222222222222,-7.6666666666666625,46.72222222222222,-7.6666666666666625C46.72222222222222,-7.6666666666666625,48.27777777777777,5.16666666666667,48.27777777777777,5.16666666666667C48.33333333333333,5.555555555555559,48.5,5.833333333333337,48.77777777777777,6.055555555555559C49.05555555555556,6.277777777777781,49.388888888888886,6.388888888888892,49.72222222222222,6.388888888888892C49.72222222222222,6.388888888888892,49.72222222222222,6.388888888888892,49.72222222222222,6.388888888888892M63.77777777777777,-7.1666666666666625C63.77777777777777,-7.1666666666666625,63.49999999999999,-7.1666666666666625,63.49999999999999,-7.1666666666666625C63.11111111111111,-7.1666666666666625,62.722222222222214,-7.055555555555552,62.388888888888886,-6.833333333333329C62.05555555555555,-6.611111111111107,61.722222222222214,-6.388888888888886,61.49999999999999,-6.055555555555552C61.49999999999999,-6.055555555555552,57.55555555555555,0.38888888888889284,57.55555555555555,0.38888888888889284C57.55555555555555,0.38888888888889284,57.55555555555555,5.16666666666667,57.55555555555555,5.16666666666667C57.55555555555555,5.5000000000000036,57.666666666666664,5.833333333333337,57.888888888888886,6.055555555555559C58.11111111111111,6.277777777777781,58.49999999999999,6.388888888888892,58.83333333333333,6.388888888888892C58.83333333333333,6.388888888888892,59.05555555555555,6.388888888888892,59.05555555555555,6.388888888888892C59.05555555555555,6.388888888888892,59.05555555555555,6.611111111111114,59.05555555555555,6.611111111111114C59.05555555555555,6.611111111111114,54.666666666666664,6.611111111111114,54.666666666666664,6.611111111111114C54.666666666666664,6.611111111111114,54.666666666666664,6.388888888888892,54.666666666666664,6.388888888888892C54.666666666666664,6.388888888888892,54.94444444444444,6.388888888888892,54.94444444444444,6.388888888888892C55.27777777777777,6.388888888888892,55.61111111111111,6.277777777777781,55.83333333333333,6.055555555555559C56.05555555555555,5.833333333333337,56.222222222222214,5.5000000000000036,56.222222222222214,5.16666666666667C56.222222222222214,5.16666666666667,56.222222222222214,0.3333333333333366,56.222222222222214,0.3333333333333366C56.222222222222214,0.3333333333333366,52.388888888888886,-6.055555555555552,52.388888888888886,-6.055555555555552C52.166666666666664,-6.388888888888886,51.94444444444444,-6.611111111111107,51.55555555555555,-6.833333333333329C51.166666666666664,-7.055555555555552,50.77777777777777,-7.1666666666666625,50.388888888888886,-7.1666666666666625C50.388888888888886,-7.1666666666666625,50.11111111111111,-7.1666666666666625,50.11111111111111,-7.1666666666666625C50.11111111111111,-7.1666666666666625,50.11111111111111,-7.388888888888886,50.11111111111111,-7.388888888888886C50.11111111111111,-7.388888888888886,55.05555555555555,-7.388888888888886,55.05555555555555,-7.388888888888886C55.05555555555555,-7.388888888888886,55.05555555555555,-7.1666666666666625,55.05555555555555,-7.1666666666666625C55.05555555555555,-7.1666666666666625,54.77777777777777,-7.1666666666666625,54.77777777777777,-7.1666666666666625C54.49999999999999,-7.1666666666666625,54.27777777777777,-7.055555555555552,54.11111111111111,-6.777777777777773C54.05555555555555,-6.611111111111107,53.99999999999999,-6.4999999999999964,53.99999999999999,-6.333333333333329C53.99999999999999,-6.1666666666666625,54.05555555555555,-6.055555555555552,54.11111111111111,-5.944444444444441C54.11111111111111,-5.944444444444441,57.11111111111111,-0.3333333333333295,57.11111111111111,-0.3333333333333295C57.11111111111111,-0.3333333333333295,60.27777777777777,-5.944444444444441,60.27777777777777,-5.944444444444441C60.33333333333333,-6.055555555555552,60.388888888888886,-6.277777777777773,60.388888888888886,-6.388888888888886C60.388888888888886,-6.4999999999999964,60.388888888888886,-6.611111111111107,60.27777777777777,-6.777777777777773C60.11111111111111,-7.055555555555552,59.83333333333333,-7.1666666666666625,59.55555555555555,-7.1666666666666625C59.55555555555555,-7.1666666666666625,59.33333333333333,-7.1666666666666625,59.33333333333333,-7.1666666666666625C59.33333333333333,-7.1666666666666625,59.33333333333333,-7.388888888888886,59.33333333333333,-7.388888888888886C59.33333333333333,-7.388888888888886,63.77777777777777,-7.388888888888886,63.77777777777777,-7.388888888888886C63.77777777777777,-7.388888888888886,63.77777777777777,-7.1666666666666625,63.77777777777777,-7.1666666666666625C63.77777777777777,-7.1666666666666625,63.77777777777777,-7.1666666666666625,63.77777777777777,-7.1666666666666625M68.83333333333333,-7.1666666666666625C68.33333333333333,-7.1666666666666625,68,-6.944444444444441,67.72222222222223,-6.555555555555552C67.61111111111111,-6.388888888888886,67.55555555555556,-6.1666666666666625,67.55555555555556,-5.944444444444441C67.55555555555556,-5.944444444444441,67.55555555555556,6.611111111111114,67.55555555555556,6.611111111111114C67.55555555555556,7.722222222222225,67.22222222222223,8.66666666666667,66.5,9.444444444444446C65.77777777777777,10.222222222222225,64.88888888888889,10.611111111111114,63.888888888888886,10.611111111111114C63.888888888888886,10.611111111111114,63.888888888888886,10.444444444444446,63.888888888888886,10.444444444444446C64.55555555555556,10.222222222222225,65.11111111111111,9.722222222222225,65.55555555555556,8.944444444444446C66,8.16666666666667,66.22222222222223,7.388888888888892,66.22222222222223,6.555555555555559C66.22222222222223,6.555555555555559,66.22222222222223,-5.944444444444441,66.22222222222223,-5.944444444444441C66.22222222222223,-6.277777777777773,66.05555555555556,-6.611111111111107,65.83333333333333,-6.833333333333329C65.61111111111111,-7.055555555555552,65.27777777777777,-7.1666666666666625,64.94444444444444,-7.1666666666666625C64.94444444444444,-7.1666666666666625,64.72222222222223,-7.1666666666666625,64.72222222222223,-7.1666666666666625C64.72222222222223,-7.1666666666666625,64.72222222222223,-7.388888888888886,64.72222222222223,-7.388888888888886C64.72222222222223,-7.388888888888886,69.05555555555556,-7.388888888888886,69.05555555555556,-7.388888888888886C69.05555555555556,-7.388888888888886,69.05555555555556,-7.1666666666666625,69.05555555555556,-7.1666666666666625C69.05555555555556,-7.1666666666666625,68.83333333333333,-7.1666666666666625,68.83333333333333,-7.1666666666666625C68.83333333333333,-7.1666666666666625,68.83333333333333,-7.1666666666666625,68.83333333333333,-7.1666666666666625M84.22222222222221,6.388888888888892C84.22222222222221,6.388888888888892,84.38888888888889,6.388888888888892,84.38888888888889,6.388888888888892C84.38888888888889,6.388888888888892,84.38888888888889,6.611111111111114,84.38888888888889,6.611111111111114C84.38888888888889,6.611111111111114,79.88888888888889,6.611111111111114,79.88888888888889,6.611111111111114C79.88888888888889,6.611111111111114,79.88888888888889,6.388888888888892,79.88888888888889,6.388888888888892C79.88888888888889,6.388888888888892,80.11111111111111,6.388888888888892,80.11111111111111,6.388888888888892C80.38888888888889,6.388888888888892,80.55555555555556,6.333333333333337,80.72222222222221,6.16666666666667C80.88888888888889,6.0000000000000036,80.94444444444444,5.777777777777781,80.94444444444444,5.611111111111114C80.94444444444444,5.444444444444448,80.88888888888889,5.333333333333337,80.83333333333333,5.16666666666667C80.83333333333333,5.16666666666667,79.55555555555556,1.7777777777777812,79.55555555555556,1.7777777777777812C79.55555555555556,1.7777777777777812,74.16666666666667,1.7777777777777812,74.16666666666667,1.7777777777777812C74.16666666666667,1.7777777777777812,72.83333333333333,5.16666666666667,72.83333333333333,5.16666666666667C72.77777777777777,5.333333333333337,72.72222222222221,5.5000000000000036,72.72222222222221,5.66666666666667C72.72222222222221,5.833333333333337,72.77777777777777,6.0000000000000036,72.94444444444444,6.16666666666667C73.11111111111111,6.333333333333337,73.33333333333333,6.388888888888892,73.61111111111111,6.388888888888892C73.61111111111111,6.388888888888892,73.77777777777777,6.388888888888892,73.77777777777777,6.388888888888892C73.77777777777777,6.388888888888892,73.77777777777777,6.611111111111114,73.77777777777777,6.611111111111114C73.77777777777777,6.611111111111114,69.72222222222221,6.611111111111114,69.72222222222221,6.611111111111114C69.72222222222221,6.611111111111114,69.72222222222221,6.388888888888892,69.72222222222221,6.388888888888892C69.72222222222221,6.388888888888892,69.94444444444444,6.388888888888892,69.94444444444444,6.388888888888892C70.27777777777777,6.388888888888892,70.55555555555556,6.333333333333337,70.88888888888889,6.111111111111114C71.22222222222221,5.888888888888892,71.44444444444444,5.555555555555559,71.66666666666667,5.16666666666667C71.66666666666667,5.16666666666667,76.22222222222221,-5.611111111111107,76.22222222222221,-5.611111111111107C76.72222222222221,-6.6666666666666625,76.94444444444444,-7.388888888888886,76.94444444444444,-7.6666666666666625C76.94444444444444,-7.6666666666666625,77.11111111111111,-7.6666666666666625,77.11111111111111,-7.6666666666666625C77.11111111111111,-7.6666666666666625,82.5,5.16666666666667,82.5,5.16666666666667C82.66666666666666,5.555555555555559,82.88888888888889,5.888888888888892,83.22222222222221,6.111111111111114C83.55555555555556,6.333333333333337,83.88888888888889,6.388888888888892,84.22222222222221,6.388888888888892C84.22222222222221,6.388888888888892,84.22222222222221,6.388888888888892,84.22222222222221,6.388888888888892M74.38888888888889,1.1666666666666705C74.38888888888889,1.1666666666666705,79.33333333333333,1.1666666666666705,79.33333333333333,1.1666666666666705C79.33333333333333,1.1666666666666705,76.94444444444444,-5.277777777777773,76.94444444444444,-5.277777777777773C76.94444444444444,-5.277777777777773,74.38888888888889,1.1666666666666705,74.38888888888889,1.1666666666666705"></path> </g> </svg>