<svg xmlns="http://www.w3.org/2000/svg" viewBox="0 0 180 180" style="height: 100%;width: 100%;position: absolute;left: 0;top: 0;/* background: black; */"> <g transform="matrix(1.7 0 0 1.7 -60 16)"> <g> <g transform="matrix(1 0 0 1 38 0)"> <defs> <linearGradient x1="0" y1="0" x2="0" y2="1" id="gradient11" gradientTransform="rotate(-150 .5 .5)"> <stop offset="0" stop-color="#57dae6" stop-opacity="1"></stop> <stop offset="1" stop-color="#576de6" stop-opacity="1"></stop> </linearGradient> </defs> <path fill="url(#gradient11)" d="M 50 10 L 69.4 43.55 73.8 41.2 50 0 0 86.55 100 86.55 78.8 49.9 74.4 52.2 91.35 81.55 8.7 81.55 50 10 Z" style="/* stroke-width: 38px; */"></path> </g> </g> <g> <g transform="matrix(1 0 0 1 38 0)"> <path fill="#ff9393" fill-opacity="1" d="M 0 86.7 L 47.65 86.7 23.85 45.4 0 86.7 M 38.95 81.65 L 8.7 81.65 23.85 55.4 38.95 81.65 Z"></path> </g> </g> </g>  </svg>